<svg xmlns="http://www.w3.org/2000/svg" viewBox="0 0 1200 800" fill="none">
  <g stroke="#0284c7" stroke-width="2.5" stroke-linecap="round" opacity="0.4">
    <path d="M100 620 Q300 480 500 520 T900 460 T1100 380"/>
    <path d="M100 680 Q280 540 480 580 T880 500 T1100 440" opacity="0.6"/>
    <path d="M100 560 Q320 420 520 460 T920 400 T1100 320" opacity="0.5"/>
  </g>
  <g fill="#38bdf8" opacity="0.15">
    <circle cx="200" cy="200" r="80"/>
    <circle cx="950" cy="280" r="100"/>
    <circle cx="600" cy="140" r="60"/>
  </g>
  <g fill="#0ea5e9" opacity="0.2">
    <rect x="240" y="320" width="24" height="72" rx="4" transform="rotate(-8 252 356)"/>
    <rect x="320" y="300" width="24" height="96" rx="4" transform="rotate(4 332 348)"/>
    <rect x="400" y="280" width="24" height="120" rx="4"/>
    <rect x="760" y="290" width="24" height="100" rx="4" transform="rotate(-5 772 340)"/>
    <rect x="840" y="270" width="24" height="130" rx="4" transform="rotate(6 852 335)"/>
  </g>
</svg>
