<svg xmlns="http://www.w3.org/2000/svg" viewBox="0 0 1200 800" fill="none">
  <g stroke="#0369a1" stroke-width="1.8" opacity="0.45">
    <rect x="100" y="120" width="140" height="100" rx="6"/>
    <rect x="320" y="80" width="180" height="80" rx="6"/>
    <rect x="580" y="140" width="160" height="120" rx="6"/>
    <rect x="820" y="100" width="200" height="90" rx="6"/>
    <path d="M240 170 H320 M500 120 V200 H580 M740 200 H820 M1020 145 V400"/>
    <path d="M180 220 V380 H400 M400 380 V520 H700 M700 520 V620 H1000"/>
    <path d="M150 450 H280 V550 H450 V650 H620 M620 650 H900 V500"/>
  </g>
  <g fill="#0ea5e9" opacity="0.35">
    <circle cx="240" cy="170" r="8"/>
    <circle cx="500" cy="200" r="7"/>
    <circle cx="740" cy="200" r="8"/>
    <circle cx="400" cy="380" r="9"/>
    <circle cx="700" cy="520" r="8"/>
    <circle cx="450" cy="550" r="7"/>
  </g>
  <g fill="#bae6fd" opacity="0.25">
    <rect x="105" y="125" width="50" height="18" rx="2"/>
    <rect x="585" y="165" width="70" height="14" rx="2"/>
    <rect x="825" y="108" width="90" height="16" rx="2"/>
  </g>
</svg>
