<svg xmlns="http://www.w3.org/2000/svg" viewBox="0 0 1200 800" fill="none">
  <g fill="#e0f2fe" stroke="#0284c7" stroke-width="2" opacity="0.5">
    <rect x="220" y="180" width="100" height="480" rx="6"/>
    <rect x="550" y="120" width="100" height="540" rx="6"/>
    <rect x="880" y="200" width="100" height="460" rx="6"/>
  </g>
  <g fill="#bae6fd" opacity="0.35">
    <rect x="235" y="200" width="70" height="12" rx="2"/>
    <rect x="235" y="240" width="70" height="12" rx="2"/>
    <rect x="235" y="280" width="70" height="12" rx="2"/>
    <rect x="565" y="150" width="70" height="12" rx="2"/>
    <rect x="565" y="190" width="70" height="12" rx="2"/>
    <rect x="565" y="230" width="70" height="12" rx="2"/>
    <rect x="895" y="230" width="70" height="12" rx="2"/>
    <rect x="895" y="270" width="70" height="12" rx="2"/>
    <rect x="895" y="310" width="70" height="12" rx="2"/>
  </g>
  <ellipse cx="270" cy="660" rx="120" ry="24" fill="#7dd3fc" opacity="0.12"/>
  <ellipse cx="600" cy="660" rx="120" ry="24" fill="#7dd3fc" opacity="0.12"/>
  <ellipse cx="930" cy="660" rx="120" ry="24" fill="#7dd3fc" opacity="0.12"/>
</svg>
