<svg xmlns="http://www.w3.org/2000/svg" viewBox="0 0 1200 800" fill="none">
  <path fill="#0284c7" opacity="0.35" d="M280 420c0-88 72-160 160-160 18 0 35 3 51 9 28-80 102-137 189-137 111 0 200 89 200 200 0 8 0 16-1 24h60c33 0 60 27 60 60s-27 60-60 60H320c-66 0-120-54-120-120 0-50 30-92 72-110-2-8-3-16-3-26z"/>
  <path fill="#38bdf8" opacity="0.25" d="M180 380c0-70 57-127 127-127 14 0 28 2 41 7 22-64 81-109 150-109 88 0 159 71 159 159v8h48c26 0 48 22 48 48s-22 48-48 48H252c-52 0-95-43-95-95 0-40 24-73 58-84-1-6-2-13-2-20z"/>
  <g stroke="#0369a1" stroke-width="2" stroke-linecap="round" opacity="0.5">
    <path d="M340 520v140M380 540v120M420 510v150M460 530v130M500 515v145M540 525v135M580 505v155M620 535v125M660 520v140M700 545v115M740 510v150M780 530v130"/>
  </g>
  <path stroke="#7dd3fc" stroke-width="3" stroke-linecap="round" opacity="0.4" d="M880 200 L920 280 L900 280 L940 360"/>
</svg>
